<svg xmlns="http://www.w3.org/2000/svg" width="579" height="431" viewBox="0 0 579 431" version="1.1"><path d="M 131.500 39.582 C 129.300 40.375, 126.873 41.254, 126.107 41.535 C 125.341 41.817, 124.934 42.267, 125.203 42.537 C 125.473 42.806, 127.408 42.310, 129.503 41.434 C 131.599 40.559, 135.155 39.477, 137.407 39.031 C 140.820 38.354, 141.002 38.213, 138.500 38.180 C 136.850 38.159, 133.700 38.790, 131.500 39.582 M 188.220 39.030 C 190.815 39.468, 195.540 40.989, 198.720 42.410 C 201.899 43.832, 203.627 44.321, 202.560 43.498 C 199.492 41.132, 190.235 37.989, 186.712 38.118 C 184.096 38.213, 184.375 38.383, 188.220 39.030 M 117.354 48.226 C 114.315 51.101, 111.370 54.363, 110.810 55.476 C 110.251 56.589, 111.203 55.836, 112.926 53.803 C 114.649 51.770, 117.926 48.507, 120.209 46.553 C 122.492 44.599, 124.027 43, 123.620 43 C 123.213 43, 120.394 45.352, 117.354 48.226 M 209.356 49.782 C 216.350 57.504, 219.233 64.513, 219.928 75.480 L 220.500 84.500 249.171 85 C 277.775 85.499, 277.848 85.506, 280.406 87.910 C 283.730 91.034, 284.577 95.683, 282.660 100.272 C 280.408 105.661, 276.902 107, 265.050 107 L 255 107 255.244 188.750 L 255.488 270.500 255.750 189.250 L 256.012 108 266.371 108 C 277.776 108, 280.447 106.904, 283.520 100.961 C 286.119 95.935, 285.433 92.198, 281.118 87.882 L 277.235 84 249.240 84 L 221.245 84 220.820 75.123 C 220.466 67.706, 219.879 65.199, 217.252 59.873 C 215.485 56.292, 212.019 51.528, 209.340 49 L 204.573 44.500 209.356 49.782 M 106.612 64.624 C 105.707 67.282, 105 72.566, 105 76.678 L 105 84 77.404 84 C 53.654 84, 49.423 84.228, 47.040 85.636 C 39.874 89.868, 39.106 98.959, 45.424 104.749 C 48.955 107.986, 49.017 108, 59.479 108 L 69.988 108 70.250 189.250 L 70.512 270.500 70.756 188.836 L 71 107.172 59.520 106.836 C 48.669 106.518, 47.896 106.356, 45.411 103.868 C 43.624 102.080, 42.619 99.800, 42.277 96.761 C 41.833 92.825, 42.137 91.878, 44.803 88.893 L 47.833 85.500 76.666 85 L 105.500 84.500 106.085 75.500 C 106.407 70.550, 107.207 65.200, 107.863 63.611 C 108.519 62.023, 108.869 60.536, 108.640 60.307 C 108.412 60.079, 107.499 62.021, 106.612 64.624 M 136.299 62.598 C 134.538 63.481, 132.340 65.395, 131.415 66.851 C 129.998 69.083, 130.314 68.949, 133.422 66 L 137.111 62.500 162.975 62.500 L 188.839 62.500 191.548 65 C 195.222 68.390, 197 72.945, 197 78.968 L 197 84 162.887 84 L 128.774 84 129.167 77.047 C 129.383 73.223, 129.216 70.635, 128.795 71.297 C 128.375 71.959, 128.024 75.313, 128.015 78.750 L 128 85 163 85 L 198 85 198 78.886 C 198 72.038, 195.714 66.879, 191.182 63.500 C 188.695 61.646, 186.717 61.482, 164 61.247 C 143.159 61.031, 139.022 61.233, 136.299 62.598 M 93.448 108.275 C 93.176 108.984, 93.077 145.864, 93.227 190.232 C 93.455 257.756, 93.728 271.112, 94.897 272.200 C 96.073 273.295, 96.153 273.184, 95.397 271.500 C 94.899 270.389, 94.381 233.599, 94.233 188.750 L 93.965 108 162.977 108 L 231.988 108 232.253 187.250 L 232.518 266.500 232.509 187 L 232.500 107.500 163.221 107.243 C 107.430 107.036, 93.846 107.237, 93.448 108.275 M 126.535 136.104 C 124.591 137.811, 123 139.618, 123 140.119 C 123 140.621, 124.289 139.589, 125.863 137.827 C 128.063 135.365, 129.860 134.465, 133.613 133.945 L 138.500 133.267 134.285 133.134 C 130.887 133.026, 129.384 133.602, 126.535 136.104 M 192.387 133.945 C 196.140 134.465, 197.937 135.365, 200.137 137.827 C 201.711 139.589, 203 140.621, 203 140.119 C 203 139.618, 201.409 137.811, 199.465 136.104 C 196.616 133.602, 195.113 133.026, 191.715 133.134 L 187.500 133.267 192.387 133.945 M 141.885 137.522 L 145 141.070 145 197.135 L 145 253.200 141.600 256.600 C 137.191 261.009, 131.803 261.296, 126.827 257.386 L 123.500 254.773 126.766 257.886 C 129.333 260.334, 130.908 261, 134.133 261 C 137.565 261, 138.870 260.365, 142.118 257.118 L 146 253.235 146 197.486 C 146 143.295, 145.943 141.645, 143.980 138.467 C 142.869 136.669, 141.242 134.923, 140.365 134.587 C 139.488 134.250, 140.172 135.571, 141.885 137.522 M 184.762 135.073 C 183.807 135.630, 182.544 137.079, 181.957 138.293 C 180.963 140.349, 180.990 140.375, 182.364 138.669 C 183.175 137.662, 184.662 136.214, 185.669 135.451 C 187.805 133.832, 187.273 133.611, 184.762 135.073 M 180.234 196.346 C 180.024 246.515, 180.166 252.473, 181.636 254.960 C 185.596 261.665, 194.780 262.868, 199.903 257.353 L 202.500 254.556 199.812 256.894 C 198.210 258.288, 195.340 259.433, 192.706 259.730 C 188.834 260.166, 187.866 259.852, 184.893 257.196 L 181.500 254.165 180.984 197.333 L 180.467 140.500 180.234 196.346 M 122.467 197 C 122.467 227.525, 122.594 240.012, 122.749 224.750 C 122.905 209.487, 122.905 184.512, 122.749 169.250 C 122.594 153.987, 122.467 166.475, 122.467 197 M 203.467 197 C 203.467 227.525, 203.594 240.012, 203.749 224.750 C 203.905 209.487, 203.905 184.512, 203.749 169.250 C 203.594 153.987, 203.467 166.475, 203.467 197 M 229.500 272.331 C 225.516 280.363, 228.197 280.068, 161.921 279.767 L 103.343 279.500 99.421 276.678 L 95.500 273.856 98.954 276.921 C 100.853 278.607, 103.778 280.234, 105.454 280.537 C 107.129 280.840, 134.150 280.956, 165.500 280.794 L 222.500 280.500 225.765 278.171 C 228.944 275.904, 232.435 270.655, 231.811 269.082 C 231.640 268.651, 230.600 270.114, 229.500 272.331 M 72.539 278.500 C 73.661 284.090, 80.194 292.718, 86.500 296.939 C 87.600 297.675, 86.616 296.626, 84.312 294.607 C 79.848 290.695, 76.603 286.079, 73.719 279.539 C 72.248 276.205, 72.042 276.024, 72.539 278.500 M 251.460 281.175 C 251.063 282.454, 249.802 284.850, 248.658 286.500 C 247.274 288.496, 247.120 289.066, 248.197 288.204 C 250.060 286.712, 253.413 280.080, 252.677 279.343 C 252.405 279.072, 251.857 279.896, 251.460 281.175 M 244.930 291.584 C 242.909 294.019, 235.402 298.947, 231.237 300.572 C 228.090 301.800, 227.973 301.938, 230.500 301.444 C 234.051 300.751, 241.646 296.070, 244.982 292.519 C 246.284 291.134, 247.100 290, 246.797 290 C 246.493 290, 245.653 290.713, 244.930 291.584 M 249.116 299.230 C 248.649 300.479, 247.986 302.625, 247.643 304 C 247.127 306.069, 247.269 305.983, 248.465 303.500 C 249.260 301.850, 249.930 299.938, 249.955 299.250 C 250.013 297.640, 291.545 297.420, 292.342 299.025 C 292.621 299.589, 292.734 299.476, 292.592 298.775 C 292.395 297.800, 287.346 297.436, 271.150 297.230 L 249.966 296.960 249.116 299.230 M 345.459 298.250 C 345.196 298.938, 345.097 324.025, 345.240 354 L 345.500 408.500 392.250 408.760 L 439 409.020 438.780 394.260 L 438.559 379.500 438.252 393.750 L 437.945 408 391.973 408 L 346 408 346 353 L 346 298 363.489 298 L 380.978 298 381.250 339.250 L 381.523 380.500 381.761 338.750 L 382 297 363.969 297 C 350.465 297, 345.817 297.314, 345.459 298.250 M 453 353 L 453 409 500 409 L 547 409 546.780 394.250 L 546.559 379.500 546.252 393.750 L 545.945 408 499.973 408 L 454 408 454 353 L 454 298 471.489 298 L 488.978 298 489.250 339.250 L 489.523 380.500 489.761 338.750 L 490 297 471.500 297 L 453 297 453 353 M 89.537 299.059 C 90.117 299.998, 96.963 302.370, 97.512 301.822 C 97.719 301.614, 95.899 300.729, 93.467 299.854 C 91.035 298.980, 89.266 298.622, 89.537 299.059 M 293.205 302 C 296.244 310.715, 298.356 315.978, 298.682 315.651 C 299.144 315.189, 294.247 301.877, 293.312 301.055 C 292.965 300.750, 292.917 301.175, 293.205 302 M 103.762 303.707 C 105.006 303.946, 106.806 303.937, 107.762 303.687 C 108.718 303.437, 107.700 303.241, 105.500 303.252 C 103.300 303.263, 102.518 303.468, 103.762 303.707 M 218.762 303.707 C 220.006 303.946, 221.806 303.937, 222.762 303.687 C 223.718 303.437, 222.700 303.241, 220.500 303.252 C 218.300 303.263, 217.518 303.468, 218.762 303.707 M 242.600 317.100 C 241.137 321.046, 240.111 324.445, 240.320 324.653 C 240.528 324.861, 241.892 321.800, 243.350 317.850 C 244.808 313.900, 245.835 310.501, 245.630 310.297 C 245.426 310.093, 244.063 313.154, 242.600 317.100 M 300 320.276 C 300 321.624, 305.288 335.045, 305.669 334.664 C 305.894 334.439, 304.923 331.184, 303.511 327.432 C 301.123 321.089, 300 318.800, 300 320.276 M 268.981 331.558 C 268.332 333.525, 268.028 335.361, 268.305 335.639 C 268.583 335.916, 269.126 334.701, 269.514 332.938 C 270.030 330.588, 270.451 330.102, 271.093 331.117 C 271.795 332.225, 271.972 332.164, 271.985 330.809 C 272.014 327.551, 270.150 328.015, 268.981 331.558 M 236.615 333.615 C 235.730 336.213, 235.179 338.512, 235.390 338.724 C 235.602 338.935, 236.499 336.983, 237.385 334.385 C 238.270 331.787, 238.821 329.488, 238.610 329.276 C 238.398 329.065, 237.501 331.017, 236.615 333.615 M 307.634 341 C 307.971 342.375, 308.862 344.850, 309.613 346.500 C 310.710 348.909, 310.859 349.008, 310.366 347 C 310.029 345.625, 309.138 343.150, 308.387 341.500 C 307.290 339.091, 307.141 338.992, 307.634 341 M 264.150 347.650 C 262.921 351.829, 262.091 355.424, 262.307 355.640 C 262.523 355.856, 263.712 352.620, 264.950 348.450 C 266.188 344.280, 267.017 340.684, 266.793 340.460 C 266.569 340.236, 265.379 343.471, 264.150 347.650 M 274.152 341 C 274.152 341.825, 274.759 344.075, 275.500 346 C 276.241 347.925, 276.848 348.825, 276.848 348 C 276.848 347.175, 276.241 344.925, 275.500 343 C 274.759 341.075, 274.152 340.175, 274.152 341 M 229.615 352.615 C 228.730 355.213, 228.179 357.512, 228.390 357.724 C 228.602 357.935, 229.499 355.983, 230.385 353.385 C 231.270 350.787, 231.821 348.488, 231.610 348.276 C 231.398 348.065, 230.501 350.017, 229.615 352.615 M 277.141 351 C 277.141 351.825, 277.527 353.400, 278 354.500 C 278.542 355.761, 278.859 355.945, 278.859 355 C 278.859 354.175, 278.473 352.600, 278 351.500 C 277.458 350.239, 277.141 350.055, 277.141 351 M 260.571 359.571 C 260.204 361.037, 260.096 362.429, 260.331 362.665 C 260.567 362.900, 261.061 361.894, 261.429 360.429 C 261.796 358.963, 261.904 357.571, 261.669 357.335 C 261.433 357.100, 260.939 358.106, 260.571 359.571 M 314.247 359.250 C 314.501 359.938, 315.495 362.892, 316.456 365.815 C 317.417 368.738, 318.380 370.954, 318.595 370.738 C 319.102 370.231, 314.979 358, 314.301 358 C 314.018 358, 313.994 358.563, 314.247 359.250 M 280.076 360.685 C 280.034 361.337, 280.434 363.010, 280.964 364.404 L 281.927 366.939 269.714 367.253 L 257.500 367.568 270.250 367.784 C 277.262 367.903, 282.966 367.663, 282.924 367.250 C 282.756 365.596, 280.147 359.581, 280.076 360.685 M 223.600 369.100 C 222.137 373.046, 221.121 376.454, 221.341 376.674 C 221.561 376.894, 222.937 373.846, 224.400 369.900 C 225.863 365.954, 226.879 362.546, 226.659 362.326 C 226.439 362.106, 225.063 365.154, 223.600 369.100 M 319.233 373.250 C 323.803 386.035, 325.352 389.982, 325.673 389.660 C 326.172 389.161, 319.978 372, 319.298 372 C 319.017 372, 318.987 372.563, 319.233 373.250 M 217.615 385.615 C 216.730 388.213, 216.179 390.512, 216.390 390.724 C 216.602 390.935, 217.499 388.983, 218.385 386.385 C 219.270 383.787, 219.821 381.488, 219.610 381.276 C 219.398 381.065, 218.501 383.017, 217.615 385.615 M 326.507 393 C 327.777 397.202, 330.888 404.562, 330.945 403.500 C 331.009 402.315, 327.062 391.723, 326.288 391 C 325.993 390.725, 326.091 391.625, 326.507 393 M 249.167 397.667 C 248.490 400.198, 248.113 402.446, 248.330 402.663 C 248.547 402.880, 249.298 401.007, 250 398.500 C 250.702 395.993, 251.078 393.745, 250.837 393.503 C 250.595 393.262, 249.844 395.135, 249.167 397.667 M 291.141 398 C 291.141 398.825, 291.527 400.400, 292 401.500 C 292.542 402.761, 292.859 402.945, 292.859 402 C 292.859 401.175, 292.473 399.600, 292 398.500 C 291.458 397.239, 291.141 397.055, 291.141 398 M 211.116 403.098 C 208.981 409.223, 208.324 409, 228.500 409 C 238.675 409, 247.001 408.663, 247.001 408.250 C 247.002 407.837, 238.902 407.632, 229.001 407.794 C 217.730 407.977, 211 407.721, 211 407.109 C 211 406.571, 211.463 404.913, 212.028 403.426 C 212.593 401.939, 212.870 400.537, 212.644 400.310 C 212.417 400.083, 211.729 401.338, 211.116 403.098 M 331.390 406.292 C 331.935 407.978, 330.854 408.066, 312.984 407.792 C 302.541 407.631, 293.998 407.837, 293.999 408.250 C 294 408.663, 302.775 409, 313.500 409 C 324.225 409, 332.993 408.663, 332.985 408.250 C 332.976 407.837, 332.484 406.825, 331.890 406 C 330.987 404.744, 330.905 404.791, 331.390 406.292" stroke="none" fill="#01bce9" fill-rule="evenodd"/><path d="M 139 38.680 C 137.625 38.904, 133.575 40.070, 130 41.271 C 124.703 43.051, 122.282 44.663, 116.917 49.978 C 109.023 57.800, 106.977 62.631, 106.108 75.500 L 105.500 84.500 76.666 85 L 47.833 85.500 44.803 88.893 C 42.137 91.878, 41.833 92.825, 42.277 96.761 C 42.619 99.800, 43.624 102.080, 45.411 103.868 C 47.896 106.356, 48.669 106.518, 59.520 106.836 L 71 107.172 71 189.549 C 71 271.345, 71.015 271.966, 73.147 277.712 C 77.617 289.760, 85.037 297.120, 96.816 301.190 L 103.500 303.500 163 303.500 C 222.330 303.500, 222.519 303.493, 229 301.225 C 241.250 296.936, 248.856 289.301, 252.933 277.199 C 254.956 271.195, 255 269.303, 255 189.032 L 255 107 265.050 107 C 276.902 107, 280.408 105.661, 282.660 100.272 C 284.577 95.683, 283.730 91.034, 280.406 87.910 C 277.848 85.506, 277.775 85.499, 249.171 85 L 220.500 84.500 219.928 75.480 C 218.669 55.607, 206.611 42.124, 187.263 38.955 C 181.737 38.050, 144.179 37.836, 139 38.680 M 136.207 62.643 C 131.151 65.174, 128 71.393, 128 78.838 L 128 85 163 85 L 198 85 198 78.886 C 198 72.038, 195.714 66.879, 191.182 63.500 C 188.695 61.646, 186.717 61.482, 164 61.247 C 142.893 61.028, 139.044 61.222, 136.207 62.643 M 93.448 108.275 C 93.176 108.984, 93.077 145.809, 93.227 190.110 L 93.500 270.657 96.194 274.188 C 101.631 281.315, 99.184 281.078, 164.201 280.773 L 222.500 280.500 225.765 278.171 C 232.915 273.072, 232.500 278.596, 232.500 188.500 L 232.500 107.500 163.221 107.243 C 107.430 107.036, 93.846 107.237, 93.448 108.275 M 126.400 137.400 L 123 140.800 123 197 L 123 253.200 126.400 256.600 C 129.187 259.387, 130.557 260, 134 260 C 137.443 260, 138.813 259.387, 141.600 256.600 L 145 253.200 145 197.135 L 145 141.070 141.896 137.535 C 139.208 134.473, 138.192 134, 134.296 134 C 130.516 134, 129.258 134.542, 126.400 137.400 M 184.077 137.077 L 181 140.154 181 196.677 L 181 253.200 184.527 256.727 C 187.797 259.997, 188.396 260.215, 192.745 259.725 C 196.352 259.319, 198.077 258.478, 200.218 256.083 L 203 252.968 203 196.884 L 203 140.800 199.600 137.400 C 196.736 134.536, 195.487 134, 191.677 134 C 187.959 134, 186.606 134.548, 184.077 137.077 M 243.107 318.252 C 239.041 329.388, 233.108 345.700, 229.923 354.500 C 226.738 363.300, 221.178 378.541, 217.566 388.369 C 213.955 398.197, 211 406.645, 211 407.142 C 211 407.657, 218.639 407.929, 228.742 407.773 L 246.484 407.500 248.469 400.250 L 250.454 393 270.500 393 L 290.546 393 292.531 400.250 L 294.517 407.500 313.241 407.772 L 331.966 408.044 328.911 399.772 C 327.231 395.222, 321.189 378.675, 315.483 363 C 309.778 347.325, 302.160 326.459, 298.555 316.631 C 294.950 306.803, 292 298.590, 292 298.381 C 292 298.171, 282.663 298.001, 271.250 298.002 L 250.500 298.003 243.107 318.252 M 346 353 L 346 408 392 408 L 438 408 438 394 L 438 380 409.500 380 L 381 380 381 339 L 381 298 363.500 298 L 346 298 346 353 M 454 353 L 454 408 500 408 L 546 408 546 394 L 546 380 517.500 380 L 489 380 489 339 L 489 298 471.500 298 L 454 298 454 353 M 267.950 335.129 C 266.736 339.183, 264.048 348.238, 261.975 355.250 L 258.206 368 270.710 368 C 282.209 368, 283.160 367.859, 282.539 366.250 C 282.167 365.288, 279.565 356.625, 276.755 347 C 273.946 337.375, 271.312 329.108, 270.902 328.629 C 270.492 328.149, 269.164 331.074, 267.950 335.129" stroke="none" fill="#040404" fill-rule="evenodd"/></svg>