<?xml version="1.0" standalone="no"?>
<!DOCTYPE svg PUBLIC "-//W3C//DTD SVG 20010904//EN"
 "http://www.w3.org/TR/2001/REC-SVG-20010904/DTD/svg10.dtd">
<svg version="1.0" xmlns="http://www.w3.org/2000/svg"
 width="512.000000pt" height="512.000000pt" viewBox="0 0 512.000000 512.000000"
 preserveAspectRatio="xMidYMid meet">

<g transform="translate(0.000000,512.000000) scale(0.100000,-0.100000)"
fill="#01bce9" stroke="none">
<path d="M2375 4909 c-106 -14 -257 -55 -361 -98 -189 -78 -325 -170 -480
-326 -203 -204 -336 -460 -390 -747 l-18 -98 -41 0 c-69 0 -227 -28 -308 -54
-288 -95 -523 -299 -661 -573 -212 -424 -126 -943 214 -1283 178 -178 400
-287 653 -320 51 -7 254 -10 539 -8 443 3 457 4 484 24 53 39 69 71 69 134 0
63 -16 95 -69 134 -27 20 -43 21 -524 27 -528 5 -522 5 -661 58 -80 30 -190
103 -261 173 -108 107 -174 223 -218 383 -23 82 -23 288 0 370 59 217 178 381
355 492 143 88 237 113 465 122 157 5 180 8 204 27 56 42 67 66 75 180 11 136
23 204 54 299 93 284 300 522 572 659 547 274 1218 45 1496 -510 68 -136 101
-265 116 -447 8 -115 18 -139 75 -181 24 -19 47 -22 204 -27 231 -9 335 -37
474 -128 175 -114 288 -273 346 -486 23 -82 23 -288 0 -370 -43 -157 -109
-274 -214 -379 -71 -71 -184 -147 -262 -176 -145 -54 -134 -54 -664 -59 -481
-6 -497 -7 -524 -27 -53 -39 -69 -71 -69 -134 0 -63 16 -95 69 -134 27 -20 41
-21 484 -24 596 -4 672 6 897 118 545 271 777 925 520 1468 -114 240 -287 418
-522 536 -133 66 -329 116 -460 116 l-42 0 -6 48 c-11 81 -53 236 -85 318 -73
186 -179 345 -329 494 -204 204 -460 340 -743 395 -99 20 -355 28 -453 14z"/>
<path d="M2495 2826 c-37 -17 -70 -52 -84 -89 -8 -19 -11 -351 -11 -1050 l0
-1021 -202 201 c-219 217 -230 224 -315 208 -49 -9 -109 -69 -118 -118 -17
-90 -23 -83 363 -469 386 -386 378 -380 469 -363 33 5 84 52 395 363 386 386
380 379 363 469 -9 49 -69 109 -118 118 -85 16 -96 9 -314 -208 l-203 -201 -2
1036 c-3 1029 -3 1037 -24 1064 -11 15 -32 37 -46 47 -34 25 -113 32 -153 13z"/>
</g>
</svg>
